# WaveFront *.obj file (generated by CINEMA 4D)

mtllib ./room.mtl

v -743.919189453125 128.69865417480469 103.63208770751953
v -743.919189453125 164.69865417480469 103.63208770751953
v 146.83969116210938 128.69865417480469 103.63208770751953
v 146.83969116210938 164.69865417480469 103.63208770751953
v 146.83969116210938 128.69865417480469 -556.43035888671875
v 146.83969116210938 164.69865417480469 -556.43035888671875
v -743.919189453125 128.69865417480469 -556.43035888671875
v -743.919189453125 164.69865417480469 -556.43035888671875
# 8 vertices

vn 0 0 1
vn 1 0 0
vn 0 0 -1
vn -1 0 0
vn 0 1 0
vn 0 -1 0
# 6 normals

vt 0 0 0
vt 0 1 0
vt 1 1 0
vt 1 0 0
# 4 texture coordinates

o Würfel.7
usemtl default
f 3/4/1 4/3/1 2/2/1 1/1/1
f 5/4/2 6/3/2 4/2/2 3/1/2
f 7/4/3 8/3/3 6/2/3 5/1/3
f 1/4/4 2/3/4 8/2/4 7/1/4
f 4/4/5 6/3/5 8/2/5 2/1/5
f 5/4/6 3/3/6 1/2/6 7/1/6

v -411.00643920898438 -11.68976783752441 -467.67950439453125
v -411.00643920898438 -4.68976831436157 -467.67950439453125
v -153.00643920898438 -11.68976783752441 -467.67950439453125
v -153.00643920898438 -4.68976831436157 -467.67950439453125
v -153.00643920898438 -11.68976783752441 -557.80010986328125
v -153.00643920898438 -4.68976831436157 -557.80010986328125
v -411.00643920898438 -11.68976783752441 -557.80010986328125
v -411.00643920898438 -4.68976831436157 -557.80010986328125
# 8 vertices

# 0 normal

# 0 texture coordinate

o Würfel.5
usemtl default
f 11/4/1 12/3/1 10/2/1 9/1/1
f 13/4/2 14/3/2 12/2/2 11/1/2
f 15/4/3 16/3/3 14/2/3 13/1/3
f 9/4/4 10/3/4 16/2/4 15/1/4
f 12/4/5 14/3/5 16/2/5 10/1/5
f 13/4/6 11/3/6 9/2/6 15/1/6

v -435.008544921875 -29.63833427429199 -550.91058349609375
v -435.008544921875 106.36166381835938 -550.91058349609375
v -435.008544921875 -29.63833427429199 -544.91058349609375
v -435.008544921875 106.36166381835938 -544.91058349609375
v -140.008544921875 -29.63833427429199 -544.91058349609375
v -140.008544921875 106.36166381835938 -544.91058349609375
v -140.008544921875 -29.63833427429199 -550.91058349609375
v -140.008544921875 106.36166381835938 -550.91058349609375
# 8 vertices

# 0 normal

# 0 texture coordinate

o Würfel.4
usemtl Mat.1
f 19/4/4 20/3/4 18/2/4 17/1/4
f 21/4/1 22/3/1 20/2/1 19/1/1
f 23/4/2 24/3/2 22/2/2 21/1/2
f 17/4/3 18/3/3 24/2/3 23/1/3
f 20/4/5 22/3/5 24/2/5 18/1/5
f 21/4/6 19/3/6 17/2/6 23/1/6

v -726.2926025390625 -103.99927520751953 -559.9976806640625
v -726.2926025390625 178.53842163085938 -559.9976806640625
v -726.2926025390625 -103.99927520751953 -506.5643310546875
v -726.2926025390625 178.53842163085938 -506.5643310546875
v 163.80406188964844 -103.99927520751953 -506.5643310546875
v 163.80406188964844 178.53842163085938 -506.5643310546875
v 163.80406188964844 -103.99927520751953 -559.9976806640625
v 163.80406188964844 178.53842163085938 -559.9976806640625
v -408.09036254882812 94.38116455078125 -506.5643310546875
v -408.09036254882812 -12.35347938537598 -506.5643310546875
v -154.39816284179688 94.38116455078125 -506.5643310546875
v -154.39816284179688 -12.35347938537598 -506.5643310546875
v -408.09036254882812 94.38116455078125 -559.9976806640625
v -408.09036254882812 -12.35347938537598 -559.9976806640625
v -154.39816284179688 94.38116455078125 -559.9976806640625
v -154.39816284179688 -12.35347938537598 -559.9976806640625
v -402.29037475585938 -6.55347919464111 -506.5643310546875
v -160.19816589355469 -6.55347919464111 -506.5643310546875
v -402.29037475585938 88.58116149902344 -506.5643310546875
v -160.19816589355469 88.58116149902344 -506.5643310546875
# 20 vertices

# 0 normal

vt 0.64250820875168 0.32436668872833 0
vt 0.357491761446 0.32436668872833 0
vt 0.64250820875168 0.70213794708252 0
vt 0.357491761446 0.70213794708252 0
# 4 texture coordinates

o Würfel.4_1
usemtl Mat.6
f 27/4/4 28/3/4 26/2/4 25/1/4
f 34/6/1 27/1/1 29/4/1 36/5/1
f 35/7/1 36/5/1 29/4/1 30/3/1
f 28/2/1 27/1/1 34/6/1 33/8/1
f 33/8/1 35/7/1 30/3/1 28/2/1
f 31/4/2 32/3/2 30/2/2 29/1/2
f 37/7/3 38/5/3 25/4/3 26/3/3
f 31/1/3 25/4/3 38/5/3 40/6/3
f 32/2/3 31/1/3 40/6/3 39/8/3
f 32/2/3 39/8/3 37/7/3 26/3/3
f 28/4/5 30/3/5 32/2/5 26/1/5
f 29/4/6 27/3/6 25/2/6 31/1/6
f 36/1/1 42/4/1 41/3/1 34/2/1
f 34/1/1 41/4/1 43/3/1 33/2/1
f 35/1/1 44/4/1 42/3/1 36/2/1
f 33/1/1 43/4/1 44/3/1 35/2/1

# 0 vertex

# 0 normal

vt 0.82811635732651 1 0
vt 0.33304741978645 1 0
vt 0.33304741978645 0 0
vt 0.82811635732651 0 0
vt 0.17188367247581 0 0
vt 0.66695261001587 0 0
vt 0.66695261001587 1 0
vt 0.17188367247581 1 0
vt 0.82811635732651 1 0
vt 0.33304741978645 1 0
vt 0.82811635732651 1 0
vt 0.33304741978645 1 0
# 12 texture coordinates

o Würfel.5_1
usemtl default
f 34/12/2 38/11/2 37/10/2 33/9/2
f 35/16/4 39/15/4 40/14/4 36/13/4
f 39/18/6 35/17/6 33/12/6 37/11/6
f 36/12/5 40/11/5 38/20/5 34/19/5

v -726.2926025390625 -103.99927520751953 48.61734390258789
v -726.2926025390625 178.53842163085938 48.61734390258789
v -726.2926025390625 -103.99927520751953 102.0506591796875
v -726.2926025390625 178.53842163085938 102.0506591796875
v 163.80406188964844 -103.99927520751953 102.0506591796875
v 163.80406188964844 178.53842163085938 102.0506591796875
v 163.80406188964844 -103.99927520751953 48.61734390258789
v 163.80406188964844 178.53842163085938 48.61734390258789
# 8 vertices

# 0 normal

# 0 texture coordinate

o Würfel.3
usemtl Mat.6
f 47/4/4 48/3/4 46/2/4 45/1/4
f 49/4/1 50/3/1 48/2/1 47/1/1
f 51/4/2 52/3/2 50/2/2 49/1/2
f 45/4/3 46/3/3 52/2/3 51/1/3
f 48/4/5 50/3/5 52/2/5 46/1/5
f 49/4/6 47/3/6 45/2/6 51/1/6

v 125.97708892822266 -103.99927520751953 104.29246520996094
v 125.97708892822266 178.53842163085938 104.29246520996094
v 179.410400390625 -103.99927520751953 104.29246520996094
v 179.410400390625 178.53842163085938 104.29246520996094
v 179.410400390625 -103.99927520751953 -556.81939697265625
v 179.410400390625 178.53842163085938 -556.81939697265625
v 125.97708892822266 -103.99927520751953 -556.81939697265625
v 125.97708892822266 178.53842163085938 -556.81939697265625
# 8 vertices

# 0 normal

# 0 texture coordinate

o Würfel.2
usemtl Mat.6
f 55/4/1 56/3/1 54/2/1 53/1/1
f 57/4/2 58/3/2 56/2/2 55/1/2
f 59/4/3 60/3/3 58/2/3 57/1/3
f 53/4/4 54/3/4 60/2/4 59/1/4
f 56/4/5 58/3/5 60/2/5 54/1/5
f 57/4/6 55/3/6 53/2/6 59/1/6

v -745.9493408203125 -103.99927520751953 104.29246520996094
v -745.9493408203125 178.53842163085938 104.29246520996094
v -692.51605224609375 -103.99927520751953 104.29246520996094
v -692.51605224609375 178.53842163085938 104.29246520996094
v -692.51605224609375 -103.99927520751953 -556.81939697265625
v -692.51605224609375 178.53842163085938 -556.81939697265625
v -745.9493408203125 -103.99927520751953 -556.81939697265625
v -745.9493408203125 178.53842163085938 -556.81939697265625
# 8 vertices

# 0 normal

# 0 texture coordinate

o Würfel.1
usemtl Mat.6
f 63/4/1 64/3/1 62/2/1 61/1/1
f 65/4/2 66/3/2 64/2/2 63/1/2
f 67/4/3 68/3/3 66/2/3 65/1/3
f 61/4/4 62/3/4 68/2/4 67/1/4
f 64/4/5 66/3/5 68/2/5 62/1/5
f 65/4/6 63/3/6 61/2/6 67/1/6

v -743.919189453125 -136.16496276855469 103.63208770751953
v -743.919189453125 -100.16496276855469 103.63208770751953
v 146.83969116210938 -136.16496276855469 103.63208770751953
v 146.83969116210938 -100.16496276855469 103.63208770751953
v 146.83969116210938 -136.16496276855469 -556.43035888671875
v 146.83969116210938 -100.16496276855469 -556.43035888671875
v -743.919189453125 -136.16496276855469 -556.43035888671875
v -743.919189453125 -100.16496276855469 -556.43035888671875
# 8 vertices

# 0 normal

# 0 texture coordinate

o Würfel
usemtl Mat.5
f 71/4/1 72/3/1 70/2/1 69/1/1
f 73/4/2 74/3/2 72/2/2 71/1/2
f 75/4/3 76/3/3 74/2/3 73/1/3
f 69/4/4 70/3/4 76/2/4 75/1/4
f 72/4/5 74/3/5 76/2/5 70/1/5
f 73/4/6 71/3/6 69/2/6 75/1/6

v -68.5 -99.51535034179688 -35.44528961181641
v -68.5 -39.26443481445312 -35.44528961181641
v 68.5 -99.51535034179688 -35.44528961181641
v 68.5 -39.26443481445312 -35.44528961181641
v 68.5 -99.51535034179688 -44.44528961181641
v 68.5 -39.26443481445312 -44.44528961181641
v -68.5 -99.51535034179688 -44.44528961181641
v -68.5 -39.26443481445312 -44.44528961181641
# 8 vertices

# 0 normal

# 0 texture coordinate

o Würfel.7_1
usemtl Mat
f 79/4/1 80/3/1 78/2/1 77/1/1
f 81/4/2 82/3/2 80/2/2 79/1/2
f 83/4/3 84/3/3 82/2/3 81/1/3
f 77/4/4 78/3/4 84/2/4 83/1/4
f 80/4/5 82/3/5 84/2/5 78/1/5
f 81/4/6 79/3/6 77/2/6 83/1/6

v -68.5 -44.75380706787109 -0.24815130233765
v -68.5 -39.75380706787109 -0.24815130233765
v 68.5 -44.75380706787109 -0.24815130233765
v 68.5 -39.75380706787109 -0.24815130233765
v 68.5 -44.75380706787109 -37.24814987182617
v 68.5 -39.75380706787109 -37.24814987182617
v -68.5 -44.75380706787109 -37.24814987182617
v -68.5 -39.75380706787109 -37.24814987182617
# 8 vertices

# 0 normal

# 0 texture coordinate

o Würfel.6
usemtl Mat.2
f 87/4/1 88/3/1 86/2/1 85/1/1
f 89/4/2 90/3/2 88/2/2 87/1/2
f 91/4/3 92/3/3 90/2/3 89/1/3
f 85/4/4 86/3/4 92/2/4 91/1/4
f 88/4/5 90/3/5 92/2/5 86/1/5
f 89/4/6 87/3/6 85/2/6 91/1/6

v -68.5 0.12018225342035 -3.4753303527832
v -68.5 5.12018203735352 -3.4753303527832
v 68.5 0.12018225342035 -3.4753303527832
v 68.5 5.12018203735352 -3.4753303527832
v 68.5 0.12018225342035 -39.4753303527832
v 68.5 5.12018203735352 -39.4753303527832
v -68.5 0.12018225342035 -39.4753303527832
v -68.5 5.12018203735352 -39.4753303527832
# 8 vertices

# 0 normal

# 0 texture coordinate

o Würfel.5_2
usemtl Mat.2
f 95/4/1 96/3/1 94/2/1 93/1/1
f 97/4/2 98/3/2 96/2/2 95/1/2
f 99/4/3 100/3/3 98/2/3 97/1/3
f 93/4/4 94/3/4 100/2/4 99/1/4
f 96/4/5 98/3/5 100/2/5 94/1/5
f 97/4/6 95/3/6 93/2/6 99/1/6

v -68.5 42.62710571289062 -3.4753303527832
v -68.5 47.62710571289062 -3.4753303527832
v 68.5 42.62710571289062 -3.4753303527832
v 68.5 47.62710571289062 -3.4753303527832
v 68.5 42.62710571289062 -39.4753303527832
v 68.5 47.62710571289062 -39.4753303527832
v -68.5 42.62710571289062 -39.4753303527832
v -68.5 47.62710571289062 -39.4753303527832
# 8 vertices

# 0 normal

# 0 texture coordinate

o Würfel.4_2
usemtl Mat.2
f 103/4/1 104/3/1 102/2/1 101/1/1
f 105/4/2 106/3/2 104/2/2 103/1/2
f 107/4/3 108/3/3 106/2/3 105/1/3
f 101/4/4 102/3/4 108/2/4 107/1/4
f 104/4/5 106/3/5 108/2/5 102/1/5
f 105/4/6 103/3/6 101/2/6 107/1/6

v -82.5 89.39954376220703 7.10127639770508
v -82.5 98.39954376220703 7.10127639770508
v 82.5 89.39954376220703 7.10127639770508
v 82.5 98.39954376220703 7.10127639770508
v 82.5 89.39954376220703 -56.89872360229492
v 82.5 98.39954376220703 -56.89872360229492
v -82.5 89.39954376220703 -56.89872360229492
v -82.5 98.39954376220703 -56.89872360229492
# 8 vertices

# 0 normal

# 0 texture coordinate

o Würfel.3_1
usemtl Mat.2
f 111/4/1 112/3/1 110/2/1 109/1/1
f 113/4/2 114/3/2 112/2/2 111/1/2
f 115/4/3 116/3/3 114/2/3 113/1/3
f 109/4/4 110/3/4 116/2/4 115/1/4
f 112/4/5 114/3/5 116/2/5 110/1/5
f 113/4/6 111/3/6 109/2/6 115/1/6

v -79.01361846923828 -100.47434234619141 -4.03829717636108
v -79.01361846923828 89.52565765380859 -4.03829717636108
v -70.01361846923828 -100.47434234619141 -4.03829717636108
v -70.01361846923828 89.52565765380859 -4.03829717636108
v -70.01361846923828 -100.47434234619141 -44.03829574584961
v -70.01361846923828 89.52565765380859 -44.03829574584961
v -79.01361846923828 -100.47434234619141 -44.03829574584961
v -79.01361846923828 89.52565765380859 -44.03829574584961
# 8 vertices

# 0 normal

# 0 texture coordinate

o Würfel.2_1
usemtl Mat
f 119/4/1 120/3/1 118/2/1 117/1/1
f 121/4/2 122/3/2 120/2/2 119/1/2
f 123/4/3 124/3/3 122/2/3 121/1/3
f 117/4/4 118/3/4 124/2/4 123/1/4
f 120/4/5 122/3/5 124/2/5 118/1/5
f 121/4/6 119/3/6 117/2/6 123/1/6

v 68.76828765869141 -100.47434234619141 -4.03829717636108
v 68.76828765869141 89.52565765380859 -4.03829717636108
v 77.76828765869141 -100.47434234619141 -4.03829717636108
v 77.76828765869141 89.52565765380859 -4.03829717636108
v 77.76828765869141 -100.47434234619141 -44.03829574584961
v 77.76828765869141 89.52565765380859 -44.03829574584961
v 68.76828765869141 -100.47434234619141 -44.03829574584961
v 68.76828765869141 89.52565765380859 -44.03829574584961
# 8 vertices

# 0 normal

# 0 texture coordinate

o Würfel.1_1
usemtl Mat
f 127/4/1 128/3/1 126/2/1 125/1/1
f 129/4/2 130/3/2 128/2/2 127/1/2
f 131/4/3 132/3/3 130/2/3 129/1/3
f 125/4/4 126/3/4 132/2/4 131/1/4
f 128/4/5 130/3/5 132/2/5 126/1/5
f 129/4/6 127/3/6 125/2/6 131/1/6

v -80 -100.47434234619141 4.5
v -80 89.52565765380859 4.5
v 80 -100.47434234619141 4.5
v 80 89.52565765380859 4.5
v 80 -100.47434234619141 -4.5
v 80 89.52565765380859 -4.5
v -80 -100.47434234619141 -4.5
v -80 89.52565765380859 -4.5
# 8 vertices

# 0 normal

# 0 texture coordinate

o Würfel_1
usemtl Mat
f 135/4/1 136/3/1 134/2/1 133/1/1
f 137/4/2 138/3/2 136/2/2 135/1/2
f 139/4/3 140/3/3 138/2/3 137/1/3
f 133/4/4 134/3/4 140/2/4 139/1/4
f 136/4/5 138/3/5 140/2/5 134/1/5
f 137/4/6 135/3/6 133/2/6 139/1/6

